{
 "cells": [
  {
   "cell_type": "code",
   "execution_count": 1,
   "metadata": {},
   "outputs": [],
   "source": [
    "from main import main"
   ]
  },
  {
   "cell_type": "code",
   "execution_count": 2,
   "metadata": {},
   "outputs": [],
   "source": [
    "BOOKS_METADATA = [\n",
    "    {\n",
    "        'title': \"El imperio final\",\n",
    "        'album': \"Nacidos de la bruma - Era 1\",\n",
    "        'author': \"Brandon Sanderson\",\n",
    "        'artist': None,\n",
    "        'genre': \"Audiobook\",\n",
    "        'year': \"2006\",\n",
    "        'description': None,\n",
    "        'track': None,\n",
    "        'tracktotal': None,\n",
    "        'disc': \"1\",\n",
    "        'disctotal': \"3\",\n",
    "        'language': 'esp',\n",
    "        'comment': None,\n",
    "    },\n",
    "    {\n",
    "        'title': \"El pozo de la ascensión\",\n",
    "        'album': \"Nacidos de la bruma - Era 1\",\n",
    "        'author': \"Brandon Sanderson\",\n",
    "        'artist': None,\n",
    "        'genre': \"Audiobook\",\n",
    "        'year': \"2007\",\n",
    "        'description': None,\n",
    "        'track': None,\n",
    "        'tracktotal': None,\n",
    "        'disc': \"2\",\n",
    "        'disctotal': \"3\",\n",
    "        'language': 'esp',\n",
    "        'comment': None,\n",
    "    },\n",
    "    {\n",
    "        'title': \"El héroe de las eras\",\n",
    "        'album': \"Nacidos de la bruma - Era 1\",\n",
    "        'author': \"Brandon Sanderson\",\n",
    "        'artist': None,\n",
    "        'genre': \"Audiobook\",\n",
    "        'year': \"2008\",\n",
    "        'description': None,\n",
    "        'track': None,\n",
    "        'tracktotal': None,\n",
    "        'disc': \"3\",\n",
    "        'disctotal': \"3\",\n",
    "        'language': 'esp',\n",
    "        'comment': None,\n",
    "    },\n",
    "    {\n",
    "        'title': \"El camino de los reyes\",\n",
    "        'album': \"El archivo de las tormentas\",\n",
    "        'author': \"Brandon Sanderson\",\n",
    "        'artist': None,\n",
    "        'genre': \"Audiobook\",\n",
    "        'year': \"2010\",\n",
    "        'description': None,\n",
    "        'track': None,\n",
    "        'tracktotal': None,\n",
    "        'disc': \"1\",\n",
    "        'disctotal': \"5\",\n",
    "        'language': 'esp',\n",
    "        'comment': None,\n",
    "    },\n",
    "    {\n",
    "        'title': \"Palabras radiantes\",\n",
    "        'album': \"El archivo de las tormentas\",\n",
    "        'author': \"Brandon Sanderson\",\n",
    "        'artist': None,\n",
    "        'genre': \"Audiobook\",\n",
    "        'year': \"2014\",\n",
    "        'description': None,\n",
    "        'track': None,\n",
    "        'tracktotal': None,\n",
    "        'disc': \"2\",\n",
    "        'disctotal': \"5\",\n",
    "        'language': 'esp',\n",
    "        'comment': None,\n",
    "    },\n",
    "    {\n",
    "        'title': \"Juramentada\",\n",
    "        'album': \"El archivo de las tormentas\",\n",
    "        'author': \"Brandon Sanderson\",\n",
    "        'artist': None,\n",
    "        'genre': \"Audiobook\",\n",
    "        'year': \"2017\",\n",
    "        'description': None,\n",
    "        'track': None,\n",
    "        'tracktotal': None,\n",
    "        'disc': \"3\",\n",
    "        'disctotal': \"5\",\n",
    "        'language': 'esp',\n",
    "        'comment': None,\n",
    "    },\n",
    "]"
   ]
  },
  {
   "cell_type": "code",
   "execution_count": null,
   "metadata": {},
   "outputs": [
    {
     "name": "stdout",
     "output_type": "stream",
     "text": [
      "ffmpeg version 4.4.2-0ubuntu0.22.04.1 Copyright (c) 2000-2021 the FFmpeg developers\n",
      "  built with gcc 11 (Ubuntu 11.2.0-19ubuntu1)\n",
      "  configuration: --prefix=/usr --extra-version=0ubuntu0.22.04.1 --toolchain=hardened --libdir=/usr/lib/x86_64-linux-gnu --incdir=/usr/include/x86_64-linux-gnu --arch=amd64 --enable-gpl --disable-stripping --enable-gnutls --enable-ladspa --enable-libaom --enable-libass --enable-libbluray --enable-libbs2b --enable-libcaca --enable-libcdio --enable-libcodec2 --enable-libdav1d --enable-libflite --enable-libfontconfig --enable-libfreetype --enable-libfribidi --enable-libgme --enable-libgsm --enable-libjack --enable-libmp3lame --enable-libmysofa --enable-libopenjpeg --enable-libopenmpt --enable-libopus --enable-libpulse --enable-librabbitmq --enable-librubberband --enable-libshine --enable-libsnappy --enable-libsoxr --enable-libspeex --enable-libsrt --enable-libssh --enable-libtheora --enable-libtwolame --enable-libvidstab --enable-libvorbis --enable-libvpx --enable-libwebp --enable-libx265 --enable-libxml2 --enable-libxvid --enable-libzimg --enable-libzmq --enable-libzvbi --enable-lv2 --enable-omx --enable-openal --enable-opencl --enable-opengl --enable-sdl2 --enable-pocketsphinx --enable-librsvg --enable-libmfx --enable-libdc1394 --enable-libdrm --enable-libiec61883 --enable-chromaprint --enable-frei0r --enable-libx264 --enable-shared\n",
      "  libavutil      56. 70.100 / 56. 70.100\n",
      "  libavcodec     58.134.100 / 58.134.100\n",
      "  libavformat    58. 76.100 / 58. 76.100\n",
      "  libavdevice    58. 13.100 / 58. 13.100\n",
      "  libavfilter     7.110.100 /  7.110.100\n",
      "  libswscale      5.  9.100 /  5.  9.100\n",
      "  libswresample   3.  9.100 /  3.  9.100\n",
      "  libpostproc    55.  9.100 / 55.  9.100\n",
      "[mp3 @ 0x5637b1b70780] Estimating duration from bitrate, this may be inaccurate\n",
      "Input #0, concat, from '/home/ubuntu/audiobooks_merger/temp_files/chapters_list.txt':\n",
      "  Duration: N/A, start: 0.000000, bitrate: 64 kb/s\n",
      "  Stream #0:0: Audio: mp3, 44100 Hz, mono, fltp, 64 kb/s\n",
      "Stream mapping:\n",
      "  Stream #0:0 -> #0:0 (mp3 (mp3float) -> aac (native))\n",
      "Press [q] to stop, [?] for help\n",
      "Output #0, ipod, to '/home/ubuntu/audiobooks_merger/output_files/El imperio final/El imperio final.m4b':\n",
      "  Metadata:\n",
      "    encoder         : Lavf58.76.100\n",
      "  Stream #0:0: Audio: aac (LC) (mp4a / 0x6134706D), 44100 Hz, mono, fltp, 64 kb/s\n",
      "    Metadata:\n",
      "      encoder         : Lavc58.134.100 aac\n",
      "size=       0kB time=00:00:00.00 bitrate=N/A speed=N/A    \n",
      "[mp3 @ 0x5637b1bbf200] Estimating duration from bitrate, this may be inaccurate\n",
      "size=     256kB time=00:00:39.07 bitrate=  53.7kbits/s speed=  78x    \n",
      "[mp3 @ 0x5637b1bbf200] Estimating duration from bitrate, this may be inaccurate\n",
      "size=     512kB time=00:01:27.82 bitrate=  47.8kbits/s speed=87.7x    \n",
      "[mp3 @ 0x5637b1bbf200] Estimating duration from bitrate, this may be inaccurate\n",
      "size=    1024kB time=00:02:28.70 bitrate=  56.4kbits/s speed=99.1x    \n",
      "[mp3 @ 0x5637b1bbf200] Estimating duration from bitrate, this may be inaccurate\n",
      "    Last message repeated 1 times\n",
      "size=    1280kB time=00:03:32.75 bitrate=  49.3kbits/s speed= 106x    \n",
      "[mp3 @ 0x5637b1bbf200] Estimating duration from bitrate, this may be inaccurate\n",
      "    Last message repeated 1 times\n",
      "size=    1792kB time=00:04:30.53 bitrate=  54.3kbits/s speed= 108x    \n",
      "[mp3 @ 0x5637b1bbf200] Estimating duration from bitrate, this may be inaccurate\n",
      "    Last message repeated 1 times\n",
      "size=    2048kB time=00:05:31.93 bitrate=  50.5kbits/s speed= 111x    \n",
      "[mp3 @ 0x5637b1bbf200] Estimating duration from bitrate, this may be inaccurate\n",
      "    Last message repeated 1 times\n",
      "size=    2560kB time=00:06:29.55 bitrate=  53.8kbits/s speed= 111x    \n",
      "[mp3 @ 0x5637b1bbf200] Estimating duration from bitrate, this may be inaccurate\n",
      "    Last message repeated 3 times\n",
      "size=    2560kB time=00:06:53.57 bitrate=  50.7kbits/s speed= 103x    \n",
      "size=    3072kB time=00:07:50.46 bitrate=  53.5kbits/s speed= 105x    \n",
      "size=    3328kB time=00:08:22.02 bitrate=  54.3kbits/s speed= 100x    \n",
      "size=    3840kB time=00:09:22.23 bitrate=  56.0kbits/s speed= 102x    \n",
      "size=    4352kB time=00:10:21.55 bitrate=  57.4kbits/s speed= 103x    \n",
      "size=    4608kB time=00:11:12.94 bitrate=  56.1kbits/s speed= 103x    \n",
      "size=    5120kB time=00:12:16.65 bitrate=  56.9kbits/s speed= 105x    \n",
      "size=    5632kB time=00:13:09.57 bitrate=  58.4kbits/s speed= 105x    \n",
      "size=    6144kB time=00:14:13.03 bitrate=  59.0kbits/s speed= 106x    \n",
      "[mp3 @ 0x5637b1bbf200] Estimating duration from bitrate, this may be inaccurate\n",
      "size=    6400kB time=00:14:41.73 bitrate=  59.5kbits/s speed= 103x    \n",
      "[mp3 @ 0x5637b1bbf200] Estimating duration from bitrate, this may be inaccurate\n",
      "size=    6656kB time=00:15:41.07 bitrate=  57.9kbits/s speed= 104x    \n",
      "size=    7168kB time=00:16:43.74 bitrate=  58.5kbits/s speed= 105x    \n",
      "[mp3 @ 0x5637b1bbf200] Estimating duration from bitrate, this may be inaccurate\n",
      "    Last message repeated 1 times\n",
      "size=    7680kB time=00:17:41.71 bitrate=  59.3kbits/s speed= 106x    \n",
      "[mp3 @ 0x5637b1bbf200] Estimating duration from bitrate, this may be inaccurate\n",
      "size=    7936kB time=00:18:36.73 bitrate=  58.2kbits/s speed= 106x    \n",
      "size=    8448kB time=00:19:30.55 bitrate=  59.1kbits/s speed= 106x    \n",
      "[mp3 @ 0x5637b1bbf200] Estimating duration from bitrate, this may be inaccurate\n",
      "size=    8704kB time=00:20:30.75 bitrate=  57.9kbits/s speed= 107x    \n",
      "size=    9216kB time=00:21:32.19 bitrate=  58.4kbits/s speed= 107x    \n",
      "size=    9728kB time=00:22:33.84 bitrate=  58.9kbits/s speed= 108x    \n",
      "size=   10240kB time=00:23:38.74 bitrate=  59.1kbits/s speed= 109x    \n",
      "size=   10752kB time=00:24:44.22 bitrate=  59.3kbits/s speed= 110x    \n",
      "size=   11264kB time=00:25:41.90 bitrate=  59.8kbits/s speed= 110x    \n",
      "size=   11776kB time=00:26:43.20 bitrate=  60.2kbits/s speed= 110x    \n",
      "size=   12288kB time=00:27:45.50 bitrate=  60.4kbits/s speed= 111x    \n",
      "size=   12544kB time=00:28:43.95 bitrate=  59.6kbits/s speed= 111x    \n",
      "size=   13056kB time=00:29:46.20 bitrate=  59.9kbits/s speed= 111x    \n",
      "size=   13568kB time=00:30:50.01 bitrate=  60.1kbits/s speed= 112x    \n",
      "size=   14080kB time=00:31:55.21 bitrate=  60.2kbits/s speed= 112x    \n",
      "size=   14592kB time=00:32:58.53 bitrate=  60.4kbits/s speed= 113x    \n",
      "size=   14848kB time=00:33:48.43 bitrate=  60.0kbits/s speed= 113x    \n",
      "size=   15360kB time=00:34:41.19 bitrate=  60.5kbits/s speed= 112x    \n",
      "size=   15872kB time=00:35:42.00 bitrate=  60.7kbits/s speed= 113x    \n",
      "size=   16384kB time=00:36:47.55 bitrate=  60.8kbits/s speed= 113x    \n",
      "size=   16896kB time=00:37:48.15 bitrate=  61.0kbits/s speed= 113x    \n",
      "size=   17408kB time=00:38:48.50 bitrate=  61.2kbits/s speed= 113x    \n",
      "size=   17920kB time=00:39:54.05 bitrate=  61.3kbits/s speed= 114x    \n",
      "size=   18176kB time=00:40:56.84 bitrate=  60.6kbits/s speed= 114x    \n",
      "size=   18688kB time=00:41:57.00 bitrate=  60.8kbits/s speed= 114x    \n",
      "size=   19200kB time=00:42:56.84 bitrate=  61.0kbits/s speed= 114x    \n",
      "size=   19712kB time=00:43:58.46 bitrate=  61.2kbits/s speed= 115x    \n",
      "size=   20224kB time=00:45:01.86 bitrate=  61.3kbits/s speed= 115x    \n",
      "size=   20736kB time=00:46:00.83 bitrate=  61.5kbits/s speed= 115x    \n",
      "size=   21248kB time=00:47:02.53 bitrate=  61.7kbits/s speed= 115x    \n",
      "size=   21504kB time=00:48:03.97 bitrate=  61.1kbits/s speed= 115x    \n",
      "size=   22016kB time=00:49:07.73 bitrate=  61.2kbits/s speed= 115x    \n",
      "size=   22528kB time=00:50:06.97 bitrate=  61.4kbits/s speed= 116x    \n",
      "size=   23040kB time=00:51:08.52 bitrate=  61.5kbits/s speed= 116x    \n",
      "size=   23552kB time=00:52:09.20 bitrate=  61.7kbits/s speed= 116x    \n",
      "size=   24064kB time=00:53:10.68 bitrate=  61.8kbits/s speed= 116x    \n",
      "size=   24320kB time=00:54:10.61 bitrate=  61.3kbits/s speed= 116x    \n",
      "[mp3 @ 0x5637b1bbf200] Estimating duration from bitrate, this may be inaccurate\n",
      "    Last message repeated 1 times\n",
      "size=   24832kB time=00:54:56.20 bitrate=  61.7kbits/s speed= 115x    \n",
      "size=   25088kB time=00:55:53.18 bitrate=  61.3kbits/s speed= 115x    \n",
      "size=   25600kB time=00:56:51.63 bitrate=  61.5kbits/s speed= 115x    \n",
      "size=   26112kB time=00:57:42.76 bitrate=  61.8kbits/s speed= 115x    \n",
      "size=   26368kB time=00:58:22.95 bitrate=  61.7kbits/s speed= 115x    \n",
      "size=   26880kB time=00:59:24.46 bitrate=  61.8kbits/s speed= 115x    \n",
      "size=   27136kB time=01:00:24.16 bitrate=  61.3kbits/s speed= 115x    \n",
      "size=   27648kB time=01:01:27.48 bitrate=  61.4kbits/s speed= 115x    \n",
      "size=   28160kB time=01:02:32.13 bitrate=  61.5kbits/s speed= 115x    \n",
      "size=   28672kB time=01:03:38.42 bitrate=  61.5kbits/s speed= 116x    \n",
      "size=   29184kB time=01:04:39.39 bitrate=  61.6kbits/s speed= 116x    \n",
      "size=   29696kB time=01:05:43.83 bitrate=  61.7kbits/s speed= 116x    \n",
      "size=   30208kB time=01:06:45.29 bitrate=  61.8kbits/s speed= 116x    \n",
      "size=   30720kB time=01:07:50.66 bitrate=  61.8kbits/s speed= 116x    \n",
      "size=   31232kB time=01:08:59.78 bitrate=  61.8kbits/s speed= 116x    \n",
      "size=   31744kB time=01:10:05.54 bitrate=  61.8kbits/s speed= 117x    \n",
      "size=   32256kB time=01:11:06.77 bitrate=  61.9kbits/s speed= 117x    \n",
      "size=   32512kB time=01:11:49.59 bitrate=  61.8kbits/s speed= 116x    \n",
      "size=   33024kB time=01:12:54.23 bitrate=  61.8kbits/s speed= 117x    \n",
      "size=   33536kB time=01:13:55.95 bitrate=  61.9kbits/s speed= 117x    \n",
      "[mp3 @ 0x5637b1bbf200] Estimating duration from bitrate, this may be inaccurate\n",
      "size=   34048kB time=01:15:01.87 bitrate=  62.0kbits/s speed= 117x    \n",
      "size=   34560kB time=01:16:00.89 bitrate=  62.1kbits/s speed= 117x    \n",
      "size=   35072kB time=01:17:05.17 bitrate=  62.1kbits/s speed= 117x    \n",
      "size=   35584kB time=01:18:06.81 bitrate=  62.2kbits/s speed= 117x    \n",
      "size=   36096kB time=01:19:12.67 bitrate=  62.2kbits/s speed= 117x    \n",
      "size=   36608kB time=01:20:17.12 bitrate=  62.3kbits/s speed= 117x    \n",
      "size=   37120kB time=01:21:22.21 bitrate=  62.3kbits/s speed= 118x    \n",
      "size=   37632kB time=01:22:26.48 bitrate=  62.3kbits/s speed= 118x    \n",
      "size=   38144kB time=01:23:29.78 bitrate=  62.4kbits/s speed= 118x    \n",
      "size=   38656kB time=01:24:32.75 bitrate=  62.4kbits/s speed= 118x    \n",
      "size=   39168kB time=01:25:36.89 bitrate=  62.5kbits/s speed= 118x    \n",
      "size=   39424kB time=01:26:35.22 bitrate=  62.2kbits/s speed= 118x    \n",
      "size=   39936kB time=01:27:33.50 bitrate=  62.3kbits/s speed= 118x    \n",
      "size=   40448kB time=01:28:34.68 bitrate=  62.3kbits/s speed= 118x    \n",
      "size=   40960kB time=01:29:40.35 bitrate=  62.4kbits/s speed= 118x    \n",
      "size=   41472kB time=01:30:47.73 bitrate=  62.4kbits/s speed= 118x    \n",
      "size=   41984kB time=01:31:54.05 bitrate=  62.4kbits/s speed= 118x    \n",
      "size=   42496kB time=01:33:03.71 bitrate=  62.3kbits/s speed= 119x    \n",
      "size=   43008kB time=01:34:06.59 bitrate=  62.4kbits/s speed= 119x    \n",
      "size=   43520kB time=01:35:12.14 bitrate=  62.4kbits/s speed= 119x    \n",
      "size=   44032kB time=01:36:18.62 bitrate=  62.4kbits/s speed= 119x    \n",
      "size=   44544kB time=01:37:19.87 bitrate=  62.5kbits/s speed= 119x    \n",
      "size=   45056kB time=01:38:22.26 bitrate=  62.5kbits/s speed= 119x    \n",
      "size=   45568kB time=01:39:29.02 bitrate=  62.5kbits/s speed= 119x    \n",
      "size=   46080kB time=01:40:32.71 bitrate=  62.6kbits/s speed= 119x    \n",
      "size=   46592kB time=01:41:35.96 bitrate=  62.6kbits/s speed= 119x    \n",
      "size=   47104kB time=01:42:42.79 bitrate=  62.6kbits/s speed= 120x    \n",
      "size=   47616kB time=01:43:46.23 bitrate=  62.6kbits/s speed= 120x    \n",
      "size=   48128kB time=01:44:52.64 bitrate=  62.7kbits/s speed= 120x    \n",
      "size=   48640kB time=01:45:57.91 bitrate=  62.7kbits/s speed= 120x    \n",
      "size=   49152kB time=01:47:02.04 bitrate=  62.7kbits/s speed= 120x    \n",
      "size=   49664kB time=01:48:06.73 bitrate=  62.7kbits/s speed= 120x    \n",
      "size=   50176kB time=01:49:13.40 bitrate=  62.7kbits/s speed= 120x    \n",
      "size=   50688kB time=01:50:20.08 bitrate=  62.7kbits/s speed= 120x    \n",
      "size=   51200kB time=01:51:22.45 bitrate=  62.8kbits/s speed= 120x    \n",
      "size=   51712kB time=01:52:25.33 bitrate=  62.8kbits/s speed= 120x    \n",
      "[mp3 @ 0x5637b1bbf200] Estimating duration from bitrate, this may be inaccurate\n",
      "size=   52224kB time=01:53:29.11 bitrate=  62.8kbits/s speed= 120x    \n",
      "size=   52480kB time=01:54:36.43 bitrate=  62.5kbits/s speed= 121x    \n",
      "size=   52992kB time=01:55:41.53 bitrate=  62.5kbits/s speed= 121x    \n",
      "size=   53504kB time=01:56:39.89 bitrate=  62.6kbits/s speed= 121x    \n",
      "size=   54016kB time=01:57:38.89 bitrate=  62.7kbits/s speed= 121x    \n",
      "size=   54528kB time=01:58:38.59 bitrate=  62.8kbits/s speed= 121x    \n",
      "size=   55040kB time=01:59:42.74 bitrate=  62.8kbits/s speed= 121x    \n",
      "size=   55296kB time=02:00:45.34 bitrate=  62.5kbits/s speed= 121x    \n",
      "size=   55808kB time=02:01:49.52 bitrate=  62.5kbits/s speed= 121x    \n",
      "size=   56320kB time=02:02:53.87 bitrate=  62.6kbits/s speed= 121x    \n",
      "size=   56832kB time=02:03:55.42 bitrate=  62.6kbits/s speed= 121x    \n",
      "size=   57344kB time=02:04:59.56 bitrate=  62.6kbits/s speed= 121x    \n",
      "size=   57856kB time=02:06:01.16 bitrate=  62.7kbits/s speed= 121x    \n",
      "size=   58368kB time=02:07:06.13 bitrate=  62.7kbits/s speed= 121x    \n",
      "size=   58880kB time=02:08:07.68 bitrate=  62.7kbits/s speed= 121x    \n",
      "size=   59392kB time=02:09:10.59 bitrate=  62.8kbits/s speed= 121x    \n",
      "size=   59904kB time=02:10:08.85 bitrate=  62.8kbits/s speed= 121x    \n",
      "size=   60160kB time=02:11:01.09 bitrate=  62.7kbits/s speed= 121x    \n",
      "size=   60672kB time=02:12:01.44 bitrate=  62.7kbits/s speed= 121x    \n",
      "size=   61184kB time=02:12:59.95 bitrate=  62.8kbits/s speed= 121x    \n",
      "size=   61696kB time=02:14:00.30 bitrate=  62.9kbits/s speed= 121x    \n",
      "size=   62208kB time=02:15:03.95 bitrate=  62.9kbits/s speed= 121x    \n",
      "size=   62464kB time=02:16:07.29 bitrate=  62.7kbits/s speed= 121x    \n",
      "size=   62976kB time=02:17:13.61 bitrate=  62.7kbits/s speed= 121x    \n",
      "size=   63488kB time=02:18:12.22 bitrate=  62.7kbits/s speed= 121x    \n",
      "size=   64000kB time=02:19:13.26 bitrate=  62.8kbits/s speed= 121x    \n",
      "size=   64512kB time=02:20:12.50 bitrate=  62.8kbits/s speed= 121x    \n",
      "size=   65024kB time=02:21:12.17 bitrate=  62.9kbits/s speed= 121x    \n",
      "size=   65536kB time=02:22:14.75 bitrate=  62.9kbits/s speed= 121x    \n",
      "size=   66048kB time=02:23:13.94 bitrate=  63.0kbits/s speed= 121x    \n",
      "size=   66560kB time=02:24:18.16 bitrate=  63.0kbits/s speed= 121x    \n",
      "size=   67072kB time=02:25:19.74 bitrate=  63.0kbits/s speed= 121x    \n",
      "size=   67584kB time=02:26:27.64 bitrate=  63.0kbits/s speed= 121x    \n",
      "size=   67840kB time=02:27:27.52 bitrate=  62.8kbits/s speed= 121x    \n",
      "size=   68352kB time=02:28:31.65 bitrate=  62.8kbits/s speed= 121x    \n",
      "size=   68864kB time=02:29:36.55 bitrate=  62.8kbits/s speed= 121x    \n",
      "size=   69632kB time=02:30:44.26 bitrate=  63.1kbits/s speed= 121x    \n",
      "size=   69888kB time=02:31:46.73 bitrate=  62.9kbits/s speed= 121x    \n",
      "size=   70400kB time=02:32:51.32 bitrate=  62.9kbits/s speed= 121x    \n",
      "[mp3 @ 0x5637b1bbf200] Estimating duration from bitrate, this may be inaccurate\n",
      "size=   70912kB time=02:33:52.87 bitrate=  62.9kbits/s speed= 121x    \n",
      "size=   71424kB time=02:34:53.94 bitrate=  63.0kbits/s speed= 121x    \n",
      "size=   71936kB time=02:35:56.77 bitrate=  63.0kbits/s speed= 121x    \n",
      "size=   72448kB time=02:37:01.28 bitrate=  63.0kbits/s speed= 121x    \n",
      "size=   72960kB time=02:38:07.69 bitrate=  63.0kbits/s speed= 122x    \n",
      "size=   73472kB time=02:39:15.35 bitrate=  63.0kbits/s speed= 122x    \n",
      "size=   73984kB time=02:40:12.59 bitrate=  63.1kbits/s speed= 122x    \n",
      "size=   74240kB time=02:41:00.86 bitrate=  63.0kbits/s speed= 121x    \n",
      "size=   74496kB time=02:41:49.81 bitrate=  62.9kbits/s speed= 121x    \n",
      "size=   75008kB time=02:42:51.48 bitrate=  62.9kbits/s speed= 121x    \n",
      "size=   75520kB time=02:43:54.59 bitrate=  62.9kbits/s speed= 121x    \n",
      "size=   76032kB time=02:44:59.98 bitrate=  62.9kbits/s speed= 121x    \n",
      "size=   76544kB time=02:46:04.02 bitrate=  62.9kbits/s speed= 121x    \n",
      "size=   77056kB time=02:47:07.44 bitrate=  63.0kbits/s speed= 121x    \n",
      "size=   77568kB time=02:48:10.99 bitrate=  63.0kbits/s speed= 121x    \n",
      "size=   78080kB time=02:49:10.71 bitrate=  63.0kbits/s speed= 121x    \n",
      "size=   78592kB time=02:50:11.45 bitrate=  63.0kbits/s speed= 121x    \n",
      "size=   79104kB time=02:51:14.66 bitrate=  63.1kbits/s speed= 122x    \n",
      "size=   79360kB time=02:52:15.24 bitrate=  62.9kbits/s speed= 122x    \n",
      "size=   79872kB time=02:53:15.43 bitrate=  62.9kbits/s speed= 122x    \n",
      "size=   80384kB time=02:54:17.61 bitrate=  63.0kbits/s speed= 122x    \n",
      "size=   80896kB time=02:55:21.79 bitrate=  63.0kbits/s speed= 122x    \n",
      "size=   81408kB time=02:56:22.74 bitrate=  63.0kbits/s speed= 122x    \n",
      "size=   81920kB time=02:57:24.00 bitrate=  63.0kbits/s speed= 122x    \n",
      "size=   82432kB time=02:58:26.02 bitrate=  63.1kbits/s speed= 122x    \n",
      "size=   82944kB time=02:59:31.38 bitrate=  63.1kbits/s speed= 122x    \n",
      "size=   83456kB time=03:00:36.07 bitrate=  63.1kbits/s speed= 122x    \n",
      "size=   83968kB time=03:01:37.44 bitrate=  63.1kbits/s speed= 122x    \n",
      "size=   84480kB time=03:02:42.85 bitrate=  63.1kbits/s speed= 122x    \n",
      "size=   84992kB time=03:03:44.99 bitrate=  63.2kbits/s speed= 122x    \n",
      "size=   85248kB time=03:04:45.50 bitrate=  63.0kbits/s speed= 122x    \n",
      "size=   86016kB time=03:05:51.56 bitrate=  63.2kbits/s speed= 122x    \n",
      "size=   86272kB time=03:06:52.72 bitrate=  63.0kbits/s speed= 122x    \n",
      "size=   86784kB time=03:07:55.30 bitrate=  63.1kbits/s speed= 122x    \n",
      "size=   87296kB time=03:09:00.34 bitrate=  63.1kbits/s speed= 122x    \n",
      "size=   87808kB time=03:10:07.35 bitrate=  63.1kbits/s speed= 122x    \n",
      "size=   88320kB time=03:11:09.14 bitrate=  63.1kbits/s speed= 122x    \n",
      "size=   88832kB time=03:12:05.94 bitrate=  63.1kbits/s speed= 122x    \n",
      "size=   89344kB time=03:12:51.59 bitrate=  63.3kbits/s speed= 122x    \n",
      "size=   89600kB time=03:13:26.14 bitrate=  63.2kbits/s speed= 121x    \n",
      "size=   89856kB time=03:14:17.94 bitrate=  63.1kbits/s speed= 121x    \n",
      "size=   90112kB time=03:15:06.56 bitrate=  63.1kbits/s speed= 121x    \n",
      "size=   90624kB time=03:16:03.01 bitrate=  63.1kbits/s speed= 121x    \n",
      "size=   91136kB time=03:17:02.13 bitrate=  63.2kbits/s speed= 121x    \n",
      "size=   91648kB time=03:17:58.55 bitrate=  63.2kbits/s speed= 121x    \n",
      "size=   91904kB time=03:18:58.11 bitrate=  63.1kbits/s speed= 121x    \n",
      "size=   92416kB time=03:19:56.84 bitrate=  63.1kbits/s speed= 121x    \n",
      "size=   92928kB time=03:20:56.60 bitrate=  63.1kbits/s speed= 121x    \n",
      "size=   93440kB time=03:21:51.82 bitrate=  63.2kbits/s speed= 121x    \n",
      "size=   93696kB time=03:22:47.99 bitrate=  63.1kbits/s speed= 121x    \n",
      "size=   94208kB time=03:23:45.81 bitrate=  63.1kbits/s speed= 121x    \n",
      "[mp3 @ 0x5637b1bbf200] Estimating duration from bitrate, this may be inaccurate\n",
      "size=   94720kB time=03:24:45.75 bitrate=  63.2kbits/s speed= 121x    \n",
      "size=   94976kB time=03:25:38.23 bitrate=  63.1kbits/s speed= 121x    \n",
      "size=   95488kB time=03:26:39.44 bitrate=  63.1kbits/s speed= 121x    \n",
      "size=   96000kB time=03:27:42.74 bitrate=  63.1kbits/s speed= 121x    \n",
      "size=   96512kB time=03:28:41.86 bitrate=  63.1kbits/s speed= 121x    \n",
      "size=   97024kB time=03:29:36.75 bitrate=  63.2kbits/s speed= 121x    \n",
      "size=   97280kB time=03:30:31.85 bitrate=  63.1kbits/s speed= 121x    \n",
      "size=   97792kB time=03:31:28.81 bitrate=  63.1kbits/s speed= 121x    \n",
      "size=   98304kB time=03:32:30.11 bitrate=  63.2kbits/s speed= 121x    \n",
      "size=   98816kB time=03:33:30.55 bitrate=  63.2kbits/s speed= 121x    \n",
      "size=   99328kB time=03:34:40.07 bitrate=  63.2kbits/s speed= 121x    \n",
      "size=   99840kB time=03:35:41.30 bitrate=  63.2kbits/s speed= 121x    \n",
      "size=  100352kB time=03:36:46.13 bitrate=  63.2kbits/s speed= 121x    \n",
      "size=  100608kB time=03:37:44.60 bitrate=  63.1kbits/s speed= 121x    \n",
      "size=  101120kB time=03:38:46.94 bitrate=  63.1kbits/s speed= 121x    \n",
      "size=  101632kB time=03:39:49.13 bitrate=  63.1kbits/s speed= 121x    \n",
      "size=  102144kB time=03:40:51.05 bitrate=  63.1kbits/s speed= 121x    \n",
      "size=  102656kB time=03:41:57.51 bitrate=  63.1kbits/s speed= 121x    \n",
      "size=  103168kB time=03:42:55.42 bitrate=  63.2kbits/s speed= 121x    \n",
      "size=  103680kB time=03:44:01.99 bitrate=  63.2kbits/s speed= 121x    \n",
      "size=  104192kB time=03:45:08.73 bitrate=  63.2kbits/s speed= 121x    \n",
      "size=  104704kB time=03:46:18.76 bitrate=  63.2kbits/s speed= 121x    \n",
      "size=  105216kB time=03:47:24.01 bitrate=  63.2kbits/s speed= 121x    \n",
      "size=  105984kB time=03:48:28.49 bitrate=  63.3kbits/s speed= 121x    \n",
      "size=  106496kB time=03:49:36.34 bitrate=  63.3kbits/s speed= 121x    \n",
      "size=  107008kB time=03:50:41.91 bitrate=  63.3kbits/s speed= 121x    \n",
      "size=  107520kB time=03:51:48.99 bitrate=  63.3kbits/s speed= 121x    \n",
      "size=  108032kB time=03:52:53.66 bitrate=  63.3kbits/s speed= 121x    \n",
      "size=  108544kB time=03:54:02.39 bitrate=  63.3kbits/s speed= 122x    \n",
      "size=  109056kB time=03:55:11.49 bitrate=  63.3kbits/s speed= 122x    \n",
      "size=  109568kB time=03:56:18.90 bitrate=  63.3kbits/s speed= 122x    \n",
      "size=  110080kB time=03:57:25.82 bitrate=  63.3kbits/s speed= 122x    \n",
      "size=  110592kB time=03:58:32.60 bitrate=  63.3kbits/s speed= 122x    \n",
      "size=  111104kB time=03:59:37.59 bitrate=  63.3kbits/s speed= 122x    \n",
      "size=  111616kB time=04:00:44.49 bitrate=  63.3kbits/s speed= 122x    \n",
      "size=  112128kB time=04:01:51.97 bitrate=  63.3kbits/s speed= 122x    \n",
      "size=  112896kB time=04:02:56.31 bitrate=  63.4kbits/s speed= 122x    \n",
      "size=  113408kB time=04:04:02.67 bitrate=  63.4kbits/s speed= 122x    \n",
      "size=  113920kB time=04:05:11.92 bitrate=  63.4kbits/s speed= 122x    \n",
      "size=  114432kB time=04:06:15.00 bitrate=  63.4kbits/s speed= 122x    \n",
      "size=  114944kB time=04:07:20.11 bitrate=  63.5kbits/s speed= 122x    \n",
      "size=  115456kB time=04:08:28.33 bitrate=  63.4kbits/s speed= 122x    \n",
      "size=  115968kB time=04:09:35.86 bitrate=  63.4kbits/s speed= 122x    \n",
      "[mp3 @ 0x5637b1bbf200] Estimating duration from bitrate, this may be inaccurate\n",
      "size=  116480kB time=04:10:35.57 bitrate=  63.5kbits/s speed= 122x    \n",
      "size=  116992kB time=04:11:44.30 bitrate=  63.5kbits/s speed= 122x    \n",
      "size=  117504kB time=04:12:53.06 bitrate=  63.4kbits/s speed= 122x    \n",
      "size=  118016kB time=04:14:01.93 bitrate=  63.4kbits/s speed= 122x    \n",
      "size=  118528kB time=04:15:08.57 bitrate=  63.4kbits/s speed= 122x    \n",
      "size=  119040kB time=04:16:14.79 bitrate=  63.4kbits/s speed= 122x    \n",
      "size=  119552kB time=04:17:21.36 bitrate=  63.4kbits/s speed= 122x    \n",
      "size=  120064kB time=04:18:30.98 bitrate=  63.4kbits/s speed= 123x    \n",
      "size=  120576kB time=04:19:34.53 bitrate=  63.4kbits/s speed= 123x    \n",
      "size=  121088kB time=04:20:38.11 bitrate=  63.4kbits/s speed= 123x    \n",
      "size=  121600kB time=04:21:40.38 bitrate=  63.4kbits/s speed= 123x    \n",
      "size=  122368kB time=04:22:46.44 bitrate=  63.6kbits/s speed= 123x    \n",
      "size=  122624kB time=04:23:51.53 bitrate=  63.5kbits/s speed= 123x    \n",
      "size=  123392kB time=04:24:57.36 bitrate=  63.6kbits/s speed= 123x    \n",
      "size=  123904kB time=04:26:00.00 bitrate=  63.6kbits/s speed= 123x    \n",
      "size=  124160kB time=04:27:02.44 bitrate=  63.5kbits/s speed= 123x    \n",
      "size=  124672kB time=04:27:51.83 bitrate=  63.5kbits/s speed= 123x    \n",
      "size=  125184kB time=04:28:47.91 bitrate=  63.6kbits/s speed= 123x    \n",
      "size=  125696kB time=04:29:50.46 bitrate=  63.6kbits/s speed= 123x    \n",
      "size=  126208kB time=04:30:52.74 bitrate=  63.6kbits/s speed= 123x    \n",
      "size=  126720kB time=04:31:56.04 bitrate=  63.6kbits/s speed= 123x    \n",
      "size=  127232kB time=04:33:01.82 bitrate=  63.6kbits/s speed= 123x    \n",
      "size=  127744kB time=04:34:02.77 bitrate=  63.6kbits/s speed= 123x    \n",
      "size=  128256kB time=04:35:08.83 bitrate=  63.6kbits/s speed= 123x    \n",
      "size=  128768kB time=04:36:09.39 bitrate=  63.7kbits/s speed= 123x    \n",
      "size=  129280kB time=04:37:16.49 bitrate=  63.7kbits/s speed= 123x    \n",
      "size=  129536kB time=04:38:17.45 bitrate=  63.6kbits/s speed= 123x    \n",
      "size=  130048kB time=04:39:23.27 bitrate=  63.6kbits/s speed= 123x    \n",
      "size=  130560kB time=04:40:16.36 bitrate=  63.6kbits/s speed= 123x    \n",
      "size=  131072kB time=04:41:12.57 bitrate=  63.6kbits/s speed= 123x    \n",
      "size=  131584kB time=04:42:16.87 bitrate=  63.6kbits/s speed= 123x    \n",
      "size=  132096kB time=04:43:19.05 bitrate=  63.7kbits/s speed= 123x    \n",
      "size=  132608kB time=04:44:21.72 bitrate=  63.7kbits/s speed= 123x    \n",
      "size=  133120kB time=04:45:29.06 bitrate=  63.7kbits/s speed= 123x    \n",
      "size=  133632kB time=04:46:34.91 bitrate=  63.7kbits/s speed= 123x    \n",
      "size=  134144kB time=04:47:33.56 bitrate=  63.7kbits/s speed= 123x    \n",
      "size=  134656kB time=04:48:39.56 bitrate=  63.7kbits/s speed= 123x    \n",
      "size=  135168kB time=04:49:44.50 bitrate=  63.7kbits/s speed= 123x    \n",
      "size=  135680kB time=04:50:49.15 bitrate=  63.7kbits/s speed= 123x    \n",
      "size=  136192kB time=04:51:55.16 bitrate=  63.7kbits/s speed= 123x    \n",
      "size=  136704kB time=04:53:01.48 bitrate=  63.7kbits/s speed= 123x    \n",
      "size=  137216kB time=04:54:03.22 bitrate=  63.7kbits/s speed= 123x    \n",
      "size=  137728kB time=04:55:07.84 bitrate=  63.7kbits/s speed= 123x    \n",
      "size=  138240kB time=04:56:15.22 bitrate=  63.7kbits/s speed= 123x    \n",
      "size=  138752kB time=04:57:16.43 bitrate=  63.7kbits/s speed= 123x    \n",
      "size=  139264kB time=04:58:22.03 bitrate=  63.7kbits/s speed= 123x    \n",
      "size=  139776kB time=04:59:27.83 bitrate=  63.7kbits/s speed= 123x    \n",
      "size=  140288kB time=05:00:21.66 bitrate=  63.8kbits/s speed= 123x    \n",
      "size=  140544kB time=05:01:18.59 bitrate=  63.7kbits/s speed= 123x    \n",
      "size=  141056kB time=05:02:16.11 bitrate=  63.7kbits/s speed= 123x    \n",
      "size=  141568kB time=05:03:22.08 bitrate=  63.7kbits/s speed= 123x    \n",
      "[mp3 @ 0x5637b1bbf200] Estimating duration from bitrate, this may be inaccurate\n",
      "size=  142080kB time=05:04:24.39 bitrate=  63.7kbits/s speed= 123x    \n",
      "size=  142592kB time=05:05:26.34 bitrate=  63.7kbits/s speed= 123x    \n",
      "size=  143104kB time=05:06:27.25 bitrate=  63.8kbits/s speed= 123x    \n",
      "size=  143616kB time=05:07:29.78 bitrate=  63.8kbits/s speed= 123x    \n",
      "size=  144128kB time=05:08:28.55 bitrate=  63.8kbits/s speed= 123x    \n",
      "size=  144640kB time=05:09:33.68 bitrate=  63.8kbits/s speed= 123x    \n",
      "size=  145152kB time=05:10:36.26 bitrate=  63.8kbits/s speed= 123x    \n",
      "size=  145664kB time=05:11:40.76 bitrate=  63.8kbits/s speed= 123x    \n",
      "size=  146176kB time=05:12:47.54 bitrate=  63.8kbits/s speed= 123x    \n",
      "size=  146432kB time=05:13:49.40 bitrate=  63.7kbits/s speed= 123x    \n",
      "size=  146944kB time=05:14:54.33 bitrate=  63.7kbits/s speed= 123x    \n",
      "size=  147456kB time=05:15:56.88 bitrate=  63.7kbits/s speed= 123x    \n",
      "size=  147968kB time=05:16:58.67 bitrate=  63.7kbits/s speed= 123x    \n",
      "size=  148480kB time=05:18:03.24 bitrate=  63.7kbits/s speed= 123x    \n",
      "size=  148992kB time=05:19:08.51 bitrate=  63.7kbits/s speed= 123x    \n",
      "size=  149504kB time=05:20:12.67 bitrate=  63.7kbits/s speed= 123x    \n",
      "size=  150016kB time=05:21:16.92 bitrate=  63.8kbits/s speed= 123x    \n",
      "size=  150528kB time=05:22:20.96 bitrate=  63.8kbits/s speed= 123x    \n",
      "size=  151040kB time=05:23:22.19 bitrate=  63.8kbits/s speed= 123x    \n",
      "size=  151552kB time=05:24:22.75 bitrate=  63.8kbits/s speed= 123x    \n",
      "size=  152064kB time=05:25:24.77 bitrate=  63.8kbits/s speed= 123x    \n",
      "size=  152576kB time=05:26:27.63 bitrate=  63.8kbits/s speed= 123x    \n",
      "size=  152832kB time=05:27:23.22 bitrate=  63.7kbits/s speed= 123x    \n",
      "size=  153344kB time=05:28:23.63 bitrate=  63.8kbits/s speed= 123x    \n",
      "size=  153856kB time=05:29:25.54 bitrate=  63.8kbits/s speed= 123x    \n",
      "size=  154368kB time=05:30:30.00 bitrate=  63.8kbits/s speed= 123x    \n",
      "size=  154880kB time=05:31:31.16 bitrate=  63.8kbits/s speed= 123x    \n",
      "size=  155392kB time=05:32:25.14 bitrate=  63.8kbits/s speed= 123x    \n",
      "size=  155648kB time=05:33:15.83 bitrate=  63.8kbits/s speed= 123x    \n",
      "size=  156160kB time=05:33:53.75 bitrate=  63.9kbits/s speed= 123x    \n",
      "size=  156416kB time=05:34:51.38 bitrate=  63.8kbits/s speed= 123x    \n",
      "size=  156928kB time=05:35:52.34 bitrate=  63.8kbits/s speed= 123x    \n",
      "size=  157440kB time=05:36:51.66 bitrate=  63.8kbits/s speed= 123x    \n",
      "size=  157952kB time=05:37:55.84 bitrate=  63.8kbits/s speed= 123x    \n",
      "size=  158464kB time=05:38:52.89 bitrate=  63.8kbits/s speed= 123x    \n",
      "size=  158976kB time=05:39:49.90 bitrate=  63.9kbits/s speed= 123x    \n",
      "size=  159488kB time=05:40:52.08 bitrate=  63.9kbits/s speed= 123x    \n",
      "size=  159744kB time=05:41:53.75 bitrate=  63.8kbits/s speed= 123x    \n",
      "size=  160256kB time=05:42:56.24 bitrate=  63.8kbits/s speed= 123x    \n",
      "size=  160768kB time=05:43:56.87 bitrate=  63.8kbits/s speed= 123x    \n",
      "[mp3 @ 0x5637b1bbf200] Estimating duration from bitrate, this may be inaccurate\n",
      "size=  161280kB time=05:44:59.46 bitrate=  63.8kbits/s speed= 123x    \n",
      "size=  161792kB time=05:45:59.48 bitrate=  63.8kbits/s speed= 123x    \n",
      "size=  162304kB time=05:47:05.78 bitrate=  63.8kbits/s speed= 123x    \n",
      "size=  162816kB time=05:48:07.29 bitrate=  63.9kbits/s speed= 123x    \n",
      "size=  163328kB time=05:49:12.81 bitrate=  63.9kbits/s speed= 123x    \n",
      "size=  163840kB time=05:50:15.97 bitrate=  63.9kbits/s speed= 123x    \n",
      "size=  164352kB time=05:51:15.41 bitrate=  63.9kbits/s speed= 123x    \n",
      "size=  164608kB time=05:52:15.09 bitrate=  63.8kbits/s speed= 123x    \n",
      "size=  165120kB time=05:53:17.16 bitrate=  63.8kbits/s speed= 123x    \n",
      "size=  165632kB time=05:54:22.27 bitrate=  63.8kbits/s speed= 123x    \n",
      "size=  166144kB time=05:55:26.10 bitrate=  63.8kbits/s speed= 123x    \n",
      "size=  166656kB time=05:56:22.27 bitrate=  63.8kbits/s speed= 123x    \n",
      "size=  167168kB time=05:57:27.47 bitrate=  63.9kbits/s speed= 123x    \n",
      "size=  167680kB time=05:58:28.19 bitrate=  63.9kbits/s speed= 123x    \n",
      "size=  168192kB time=05:59:32.74 bitrate=  63.9kbits/s speed= 123x    \n",
      "size=  168704kB time=06:00:36.76 bitrate=  63.9kbits/s speed= 123x    \n",
      "size=  169216kB time=06:01:42.79 bitrate=  63.9kbits/s speed= 123x    \n",
      "size=  169728kB time=06:02:45.26 bitrate=  63.9kbits/s speed= 123x    \n",
      "size=  170240kB time=06:03:47.11 bitrate=  63.9kbits/s speed= 123x    \n",
      "size=  170752kB time=06:04:46.02 bitrate=  63.9kbits/s speed= 123x    \n",
      "size=  171008kB time=06:05:44.40 bitrate=  63.8kbits/s speed= 123x    \n",
      "size=  171520kB time=06:06:47.32 bitrate=  63.8kbits/s speed= 123x    \n",
      "size=  172032kB time=06:07:50.62 bitrate=  63.9kbits/s speed= 123x    \n",
      "size=  172544kB time=06:08:55.06 bitrate=  63.9kbits/s speed= 123x    \n",
      "size=  173056kB time=06:09:57.50 bitrate=  63.9kbits/s speed= 123x    \n",
      "size=  173568kB time=06:10:58.70 bitrate=  63.9kbits/s speed= 123x    \n",
      "size=  174080kB time=06:12:05.69 bitrate=  63.9kbits/s speed= 123x    \n",
      "size=  174592kB time=06:13:07.18 bitrate=  63.9kbits/s speed= 123x    \n",
      "size=  175104kB time=06:14:11.71 bitrate=  63.9kbits/s speed= 123x    \n",
      "size=  175616kB time=06:15:19.35 bitrate=  63.9kbits/s speed= 123x    \n",
      "size=  176128kB time=06:16:24.64 bitrate=  63.9kbits/s speed= 123x    \n",
      "size=  176640kB time=06:17:28.17 bitrate=  63.9kbits/s speed= 123x    \n",
      "size=  177152kB time=06:18:33.79 bitrate=  63.9kbits/s speed= 123x    \n",
      "size=  177664kB time=06:19:36.25 bitrate=  63.9kbits/s speed= 123x    \n",
      "size=  178176kB time=06:20:40.53 bitrate=  63.9kbits/s speed= 123x    \n",
      "size=  178688kB time=06:21:46.33 bitrate=  63.9kbits/s speed= 123x    \n",
      "size=  179200kB time=06:22:53.20 bitrate=  63.9kbits/s speed= 123x    \n",
      "size=  179712kB time=06:23:55.71 bitrate=  63.9kbits/s speed= 123x    \n",
      "size=  180224kB time=06:24:58.38 bitrate=  63.9kbits/s speed= 123x    \n",
      "size=  180736kB time=06:26:04.63 bitrate=  63.9kbits/s speed= 123x    \n",
      "size=  180992kB time=06:26:57.97 bitrate=  63.9kbits/s speed= 123x    \n",
      "size=  181504kB time=06:27:48.33 bitrate=  63.9kbits/s speed= 123x    \n",
      "size=  182016kB time=06:28:48.12 bitrate=  63.9kbits/s speed= 123x    \n",
      "size=  182272kB time=06:29:38.81 bitrate=  63.9kbits/s speed= 123x    \n",
      "size=  182784kB time=06:30:36.93 bitrate=  63.9kbits/s speed= 123x    \n",
      "size=  183296kB time=06:31:35.82 bitrate=  63.9kbits/s speed= 123x    \n",
      "[mp3 @ 0x5637b1bbf200] Estimating duration from bitrate, this may be inaccurate\n",
      "    Last message repeated 1 times\n",
      "size=  183808kB time=06:32:36.43 bitrate=  63.9kbits/s speed= 123x    \n",
      "size=  184320kB time=06:33:44.77 bitrate=  63.9kbits/s speed= 123x    \n",
      "size=  184832kB time=06:34:51.96 bitrate=  63.9kbits/s speed= 123x    \n",
      "size=  185344kB time=06:35:47.48 bitrate=  63.9kbits/s speed= 123x    \n",
      "size=  185856kB time=06:36:50.55 bitrate=  63.9kbits/s speed= 123x    \n",
      "size=  186368kB time=06:37:56.26 bitrate=  63.9kbits/s speed= 123x    \n",
      "size=  186880kB time=06:39:02.39 bitrate=  63.9kbits/s speed= 123x    \n",
      "size=  187392kB time=06:40:06.55 bitrate=  63.9kbits/s speed= 123x    \n",
      "size=  187904kB time=06:41:10.03 bitrate=  64.0kbits/s speed= 123x    \n",
      "size=  188160kB time=06:42:10.47 bitrate=  63.9kbits/s speed= 123x    \n",
      "size=  188672kB time=06:43:17.37 bitrate=  63.9kbits/s speed= 123x    \n",
      "size=  189440kB time=06:44:25.06 bitrate=  64.0kbits/s speed= 123x    \n",
      "size=  189952kB time=06:45:31.65 bitrate=  64.0kbits/s speed= 123x    \n",
      "size=  190208kB time=06:46:33.81 bitrate=  63.9kbits/s speed= 123x    \n",
      "size=  190720kB time=06:47:36.30 bitrate=  63.9kbits/s speed= 123x    \n",
      "size=  191232kB time=06:48:39.87 bitrate=  63.9kbits/s speed= 123x    \n",
      "size=  191744kB time=06:49:43.66 bitrate=  63.9kbits/s speed= 123x    \n",
      "size=  192256kB time=06:50:49.72 bitrate=  63.9kbits/s speed= 123x    \n",
      "size=  192768kB time=06:51:51.88 bitrate=  63.9kbits/s speed= 123x    \n",
      "size=  193280kB time=06:52:53.83 bitrate=  63.9kbits/s speed= 123x    \n",
      "size=  193792kB time=06:53:52.81 bitrate=  63.9kbits/s speed= 123x    \n",
      "size=  194304kB time=06:54:58.22 bitrate=  63.9kbits/s speed= 123x    \n",
      "size=  194816kB time=06:56:03.42 bitrate=  63.9kbits/s speed= 123x    \n",
      "size=  195328kB time=06:57:08.48 bitrate=  63.9kbits/s speed= 123x    \n",
      "size=  195840kB time=06:58:16.42 bitrate=  63.9kbits/s speed= 123x    \n",
      "size=  196352kB time=06:59:23.53 bitrate=  63.9kbits/s speed= 123x    \n",
      "size=  196864kB time=07:00:30.36 bitrate=  63.9kbits/s speed= 123x    \n",
      "size=  197376kB time=07:01:34.23 bitrate=  63.9kbits/s speed= 123x    \n",
      "size=  197888kB time=07:02:40.16 bitrate=  63.9kbits/s speed= 123x    \n",
      "[mp3 @ 0x5637b1bbf200] Estimating duration from bitrate, this may be inaccurate\n",
      "size=  198400kB time=07:03:38.36 bitrate=  63.9kbits/s speed= 123x    \n",
      "size=  198912kB time=07:04:39.27 bitrate=  64.0kbits/s speed= 123x    \n",
      "size=  199424kB time=07:05:48.46 bitrate=  63.9kbits/s speed= 123x    \n",
      "size=  199936kB time=07:06:56.77 bitrate=  63.9kbits/s speed= 123x    \n",
      "size=  200448kB time=07:07:57.98 bitrate=  63.9kbits/s speed= 123x    \n",
      "size=  200960kB time=07:08:55.66 bitrate=  64.0kbits/s speed= 123x    \n",
      "size=  201472kB time=07:09:58.31 bitrate=  64.0kbits/s speed= 123x    \n",
      "size=  201984kB time=07:11:04.86 bitrate=  64.0kbits/s speed= 123x    \n"
     ]
    }
   ],
   "source": [
    "for BOOK_METADATA in BOOKS_METADATA:\n",
    "    main(BOOK_METADATA)"
   ]
  },
  {
   "cell_type": "code",
   "execution_count": null,
   "metadata": {},
   "outputs": [],
   "source": []
  }
 ],
 "metadata": {
  "kernelspec": {
   "display_name": ".venv",
   "language": "python",
   "name": "python3"
  },
  "language_info": {
   "codemirror_mode": {
    "name": "ipython",
    "version": 3
   },
   "file_extension": ".py",
   "mimetype": "text/x-python",
   "name": "python",
   "nbconvert_exporter": "python",
   "pygments_lexer": "ipython3",
   "version": "3.10.12"
  }
 },
 "nbformat": 4,
 "nbformat_minor": 2
}
